<svg width="67" height="86" viewBox="0 0 67 86" fill="none" xmlns="http://www.w3.org/2000/svg">
<rect x="0.5" width="66" height="26" rx="13" fill="white"/>
<path d="M22.7658 12.32H13.1178V13.352H17.2938V14.252C15.3618 14.372 14.2338 15.032 14.2218 16.136C14.2338 17.348 15.6138 18.032 17.9178 18.032C20.2098 18.032 21.5898 17.348 21.5898 16.136C21.5898 15.032 20.4618 14.372 18.5658 14.264V13.352H22.7658V12.32ZM13.5738 10.808L14.0298 11.84C15.9498 11.636 17.3538 10.868 17.9298 9.788C18.4938 10.868 19.9218 11.636 21.8538 11.84L22.3098 10.808C20.3178 10.628 19.0458 9.836 18.8418 8.96H21.9018V7.928H13.9818V8.96H17.0178C16.8018 9.824 15.5298 10.628 13.5738 10.808ZM15.5658 16.136C15.5538 15.548 16.3818 15.236 17.9178 15.224C19.4418 15.236 20.2818 15.548 20.2938 16.136C20.2818 16.712 19.4418 17.036 17.9178 17.024C16.3818 17.036 15.5538 16.712 15.5658 16.136ZM31.8409 7.448H30.5209V15.08H31.8409V11.576H33.3289V10.496H31.8409V7.448ZM23.4409 12.968L23.9929 14C27.1249 13.076 28.9609 11.072 28.9609 8.264H23.8969V9.32H27.5329C27.3169 10.928 25.8769 12.248 23.4409 12.968ZM25.0249 17.84H32.2249V16.784H26.3449V14.312H25.0249V17.84ZM37.844 10.448V9.56H40.172V8.504H34.196V9.56H36.524V10.448C36.524 12.26 35.48 14.24 33.812 15.008L34.556 16.04C35.792 15.452 36.728 14.216 37.208 12.764C37.688 14.108 38.612 15.224 39.86 15.776L40.58 14.744C38.864 14.024 37.844 12.2 37.844 10.448ZM41.348 18.032H42.668V7.448H41.348V18.032ZM53.0871 7.448H51.7911V9.968H49.9671V11.024H51.7911V13.592H53.0871V7.448ZM44.2071 12.536L44.8791 13.568C46.1271 13.148 47.0031 12.26 47.4711 11.156C47.9271 12.152 48.7671 12.968 49.9431 13.376L50.6151 12.344C48.9711 11.78 48.1191 10.472 48.1191 9.2V9.104H50.3031V8.048H44.5911V9.104H46.7991V9.176C46.7871 10.58 45.8871 11.984 44.2071 12.536ZM46.0551 17.912H53.0871V14.072H46.0551V17.912ZM47.3511 16.856V15.104H51.8151V16.856H47.3511Z" fill="#EF4B33"/>
<path d="M17.9418 40.306C9.34949 48.7177 9.34949 62.3569 17.9418 70.7687L33.5 86L49.0583 70.7687C57.6505 62.3569 57.6505 48.7177 49.0583 40.306C40.4622 31.898 26.5302 31.898 17.9418 40.306Z" fill="#EF4B33"/>
<path d="M24.546 47.0696C19.789 51.8833 20.0594 59.6201 24.8964 64.3554L33.4962 72.7746L38.4056 67.9685C38.6303 67.7485 38.6303 67.3905 38.4056 67.1705L35.949 64.7656C35.7243 64.5456 35.3587 64.5456 35.1339 64.7656L33.4924 66.3726L28.1108 61.1041C25.182 58.2368 24.8621 53.591 27.5776 50.5298C30.7045 47.0063 36.2842 47.0025 39.411 50.5335C42.1266 53.5947 41.8067 58.2405 38.8778 61.1078L38.8245 61.16C38.5998 61.38 38.5998 61.738 38.8245 61.958L41.2811 64.3629C41.5058 64.5829 41.8714 64.5829 42.0961 64.3629C46.9331 59.6276 47.2035 51.8907 42.4465 47.0771C37.5562 42.1181 29.4362 42.1181 24.546 47.0696Z" fill="white"/>
</svg>
